<?xml version="1.0" encoding="UTF-8" standalone="no"?> <svg width="24" height="24" viewBox="0 0 24 24" fill="none" xmlns="http://www.w3.org/2000/svg">
<path d="M17.4 22C13.3171 21.9952 9.40285 20.3712 6.51582 17.4842C3.62879 14.5972 2.00476 10.6829 2 6.6C2 5.38001 2.48464 4.20998 3.34731 3.34731C4.20998 2.48464 5.38 2 6.6 2C6.85672 1.9997 7.113 2.02144 7.366 2.065C7.61253 2.10527 7.8551 2.16683 8.091 2.249C8.25143 2.30394 8.39513 2.39904 8.50839 2.52525C8.62164 2.65146 8.70069 2.80458 8.738 2.97L10.107 8.933C10.1441 9.09469 10.1404 9.26307 10.0963 9.42298C10.0521 9.58288 9.96884 9.72929 9.854 9.849C9.719 9.991 9.717 9.994 8.474 10.643C9.46412 12.8023 11.1955 14.5351 13.354 15.527C14.006 14.284 14.008 14.281 14.154 14.145C14.3411 13.9662 14.5902 13.8669 14.849 13.868C14.9233 13.868 14.9974 13.876 15.07 13.892L21.033 15.261C21.1983 15.2988 21.3513 15.378 21.4776 15.4912C21.604 15.6043 21.6994 15.7478 21.755 15.908C21.8378 16.1454 21.8994 16.3897 21.939 16.638C21.9807 16.8898 22.0011 17.1447 22 17.4C21.9987 18.6196 21.5136 19.7889 20.6512 20.6512C19.7888 21.5136 18.6196 21.9987 17.4 22ZM6.6 4C5.91044 4 5.24912 4.27393 4.76152 4.76153C4.27393 5.24912 4 5.91044 4 6.6C4.00423 10.1526 5.41738 13.5585 7.92945 16.0706C10.4415 18.5826 13.8474 19.9958 17.4 20C18.0896 20 18.7509 19.7261 19.2385 19.2385C19.7261 18.7509 20 18.0896 20 17.4C19.9998 17.2903 19.9928 17.1808 19.979 17.072L15.357 16.011L15.284 16.152C15.214 16.287 15.141 16.425 15.072 16.552L15.066 16.564C14.702 17.264 14.415 17.808 13.866 17.808C13.7194 17.8046 13.5747 17.773 13.44 17.715C11.7832 17.1225 10.2792 16.1683 9.03721 14.9219C7.79525 13.6754 6.84654 12.1679 6.26 10.509C5.902 9.725 6.583 9.369 7.445 8.918L7.981 8.637L6.928 4.021C6.81927 4.00652 6.70968 3.9995 6.6 4V4ZM21 12C20.7348 12 20.4804 11.8946 20.2929 11.7071C20.1054 11.5196 20 11.2652 20 11C19.9979 9.14414 19.2597 7.36489 17.9474 6.05259C16.6351 4.7403 14.8559 4.00212 13 4C12.7348 4 12.4804 3.89465 12.2929 3.70711C12.1054 3.51957 12 3.26522 12 3C12 2.73479 12.1054 2.48043 12.2929 2.2929C12.4804 2.10536 12.7348 2 13 2C15.3861 2.00265 17.6738 2.95171 19.361 4.63897C21.0483 6.32622 21.9974 8.61387 22 11C22 11.2652 21.8946 11.5196 21.7071 11.7071C21.5196 11.8946 21.2652 12 21 12ZM17 12C16.7348 12 16.4804 11.8946 16.2929 11.7071C16.1054 11.5196 16 11.2652 16 11C16 10.2044 15.6839 9.44129 15.1213 8.87868C14.5587 8.31607 13.7956 8 13 8C12.7348 8 12.4804 7.89465 12.2929 7.70711C12.1054 7.51957 12 7.26522 12 7C12 6.73479 12.1054 6.48043 12.2929 6.2929C12.4804 6.10536 12.7348 6 13 6C14.3256 6.00159 15.5964 6.52889 16.5338 7.46622C17.4711 8.40356 17.9984 9.67441 18 11C18 11.2652 17.8946 11.5196 17.7071 11.7071C17.5196 11.8946 17.2652 12 17 12Z" fill="black"/>
</svg>
