<?xml version="1.0" standalone="no"?>
<!DOCTYPE svg PUBLIC "-//W3C//DTD SVG 20010904//EN"
 "http://www.w3.org/TR/2001/REC-SVG-20010904/DTD/svg10.dtd">
<svg version="1.0" xmlns="http://www.w3.org/2000/svg"
 width="512.000000pt" height="512.000000pt" viewBox="0 0 512.000000 512.000000"
 preserveAspectRatio="xMidYMid meet">
<metadata>
Created by potrace 1.16, written by Peter Selinger 2001-2019
</metadata>
<g transform="translate(0.000000,512.000000) scale(0.100000,-0.100000)"
fill="#000000" stroke="none">
<path d="M290 4462 c-101 -38 -172 -94 -225 -177 -70 -109 -66 -24 -63 -1316
l3 -1164 32 -67 c35 -75 104 -150 173 -191 101 -59 52 -57 1385 -57 l1221 0
18 -57 c46 -147 137 -299 256 -426 172 -184 406 -310 654 -353 136 -24 369
-15 497 19 134 35 264 93 312 139 38 36 39 40 34 85 -4 37 -12 54 -36 75 -41
37 -79 36 -161 -3 -316 -152 -644 -143 -924 23 -324 193 -512 569 -466 929 57
443 396 782 839 839 228 29 491 -43 681 -188 150 -113 275 -288 330 -458 39
-122 50 -196 50 -334 0 -132 -14 -175 -73 -227 -93 -81 -235 -63 -304 40 -35
51 -43 121 -43 364 l0 225 -29 29 c-23 23 -38 29 -71 29 -23 0 -50 -5 -61 -11
-16 -8 -26 -6 -52 14 -51 39 -132 76 -199 92 -184 43 -364 -9 -499 -144 -212
-212 -213 -544 -3 -754 109 -109 225 -157 379 -157 138 0 254 42 355 129 l44
38 48 -48 c26 -26 78 -62 114 -80 59 -29 79 -34 165 -37 111 -5 172 10 254 63
85 55 146 133 178 229 22 66 23 327 2 450 -58 333 -268 632 -567 807 -98 57
-249 114 -358 134 -52 10 -101 19 -107 21 -10 3 -13 119 -13 541 0 296 -4 564
-10 596 -25 156 -135 286 -282 336 l-62 21 -1685 -1 c-1551 0 -1690 -2 -1731
-17z m3329 -206 c-48 -45 -1503 -1232 -1523 -1243 -34 -17 -105 -19 -136 -3
-22 12 -1454 1183 -1500 1226 l-25 24 1594 0 c877 0 1592 -2 1590 -4z m-2517
-841 c422 -346 731 -592 765 -610 53 -27 67 -30 158 -30 87 0 107 3 155 26 37
17 317 241 844 673 591 486 791 645 800 636 8 -8 11 -163 11 -568 l0 -556 -81
-13 c-561 -87 -984 -586 -984 -1159 l0 -104 -1198 2 -1197 3 -40 22 c-50 27
-80 58 -100 105 -13 33 -15 167 -15 1140 0 607 3 1113 6 1125 6 21 12 18 88
-45 45 -37 400 -328 788 -647z m2975 -1320 c198 -90 244 -346 89 -501 -198
-197 -532 -58 -530 221 2 229 232 375 441 280z"/>
</g>
</svg>
