<svg width="18" height="18" viewBox="0 0 18 18" fill="none" xmlns="http://www.w3.org/2000/svg">
<path d="M8.99526 0.666657C7.34709 0.666657 5.73592 1.1554 4.36551 2.07108C2.9951 2.98675 1.927 4.28824 1.29627 5.81096C0.665537 7.33368 0.500509 9.00923 0.822053 10.6257C1.1436 12.2423 1.93727 13.7271 3.10271 14.8925C4.26814 16.058 5.753 16.8517 7.36951 17.1732C8.98602 17.4947 10.6616 17.3297 12.1843 16.699C13.707 16.0683 15.0085 15.0002 15.9242 13.6297C16.8399 12.2593 17.3286 10.6482 17.3286 8.99999C17.3287 7.90562 17.1132 6.82194 16.6944 5.81085C16.2757 4.79977 15.6619 3.88107 14.888 3.10723C14.1142 2.33339 13.1955 1.71957 12.1844 1.30081C11.1733 0.882052 10.0896 0.666566 8.99526 0.666657V0.666657ZM11.6449 13.2937C11.6137 13.3715 11.5662 13.4417 11.5057 13.4996C11.4451 13.5576 11.3729 13.6019 11.2938 13.6296C11.2147 13.6574 11.1307 13.6679 11.0472 13.6605C10.9637 13.653 10.8828 13.6279 10.8099 13.5866L8.54763 11.8288L7.0957 13.1683C7.06201 13.1932 7.0226 13.2092 6.98109 13.2149C6.93959 13.2206 6.89733 13.2157 6.8582 13.2008L7.13653 10.7104L7.14544 10.7175L7.15113 10.6683C7.15113 10.6683 11.222 6.96203 11.3878 6.80412C11.5557 6.64662 11.5003 6.61246 11.5003 6.61246C11.5099 6.42035 11.199 6.61246 11.199 6.61246L5.80526 10.0825L3.55902 9.31749C3.55902 9.31749 3.21402 9.19374 3.18152 8.92166C3.14735 8.65166 3.57026 8.50499 3.57026 8.50499L12.5011 4.95706C12.5011 4.95706 13.2353 4.62997 13.2353 5.17166L11.6449 13.2937Z" fill="black"/>
</svg>
