<svg width="24" height="26" viewBox="0 0 24 26" fill="none" xmlns="http://www.w3.org/2000/svg">
<path d="M22.8369 1.44469L22.8383 1.44414C22.925 1.41104 23.0181 1.40457 23.1075 1.42493C23.195 1.44488 23.278 1.49041 23.346 1.55907C23.4108 1.63145 23.4568 1.72323 23.4764 1.82494C23.4964 1.92892 23.4874 2.03656 23.4511 2.1346L23.451 2.13457L23.448 2.14319L15.448 25.0232L15.4477 25.0241C15.4111 25.1295 15.3457 25.2177 15.2634 25.2791C15.1851 25.3376 15.0943 25.3697 15.0023 25.3743C14.9135 25.3691 14.8261 25.3382 14.75 25.2828C14.67 25.2246 14.6054 25.1411 14.567 25.0408L14.5667 25.0399L10.7267 15.0559L10.6498 14.856L10.452 14.7738L0.852046 10.7802L0.852079 10.7801L0.843478 10.7767C0.75114 10.7403 0.668275 10.6741 0.608252 10.5837C0.548086 10.493 0.514648 10.3834 0.514648 10.2694C0.514648 10.1554 0.548086 10.0458 0.608252 9.95513C0.667682 9.86558 0.749503 9.79987 0.840744 9.76322L22.8369 1.44469ZM14.5331 22.1015L15.0232 23.3803L15.4723 22.0866L21.8023 3.85541L22.1519 2.84867L21.1542 3.22333L3.62422 9.80653L2.45112 10.2471L3.60526 10.7351L10.5653 13.6783L10.882 13.8123L11.1204 13.5644L15.59 8.916L16.3064 9.66101L11.8496 14.2961L11.6295 14.525L11.7431 14.8215L14.5331 22.1015Z" fill="#17213C" stroke="#252B42"/>
</svg>
